<?xml version="1.0" encoding="UTF-8"?>
<svg xmlns="http://www.w3.org/2000/svg" viewBox="0 0 80 3000" width="80" height="3000">
  <defs>
    <linearGradient id="steel" x1="0" y1="0" x2="1" y2="0">
      <stop offset="0%" stop-color="#bcbcc0"/>
      <stop offset="15%" stop-color="#e5e5e8"/>
      <stop offset="50%" stop-color="#f6f6f8"/>
      <stop offset="85%" stop-color="#dadade"/>
      <stop offset="100%" stop-color="#aeaeb2"/>
    </linearGradient>
    <pattern id="ticks" x="0" y="0" width="80" height="100" patternUnits="userSpaceOnUse">
      <line x1="0" y1="8.33" x2="10" y2="8.33" stroke="#444" stroke-width="0.6"/>
      <line x1="0" y1="16.67" x2="10" y2="16.67" stroke="#444" stroke-width="0.6"/>
      <line x1="0" y1="25" x2="10" y2="25" stroke="#444" stroke-width="0.6"/>
      <line x1="0" y1="33.33" x2="10" y2="33.33" stroke="#444" stroke-width="0.6"/>
      <line x1="0" y1="41.67" x2="10" y2="41.67" stroke="#444" stroke-width="0.6"/>
      <line x1="0" y1="50" x2="22" y2="50" stroke="#1a1a1a" stroke-width="1.2"/>
      <line x1="0" y1="58.33" x2="10" y2="58.33" stroke="#444" stroke-width="0.6"/>
      <line x1="0" y1="66.67" x2="10" y2="66.67" stroke="#444" stroke-width="0.6"/>
      <line x1="0" y1="75" x2="10" y2="75" stroke="#444" stroke-width="0.6"/>
      <line x1="0" y1="83.33" x2="10" y2="83.33" stroke="#444" stroke-width="0.6"/>
      <line x1="0" y1="91.67" x2="10" y2="91.67" stroke="#444" stroke-width="0.6"/>
      <line x1="0" y1="100" x2="36" y2="100" stroke="#1a1a1a" stroke-width="2"/>
    </pattern>
  </defs>

  <rect width="80" height="3000" fill="url(#steel)"/>
  <rect width="80" height="3000" fill="url(#ticks)"/>

  <g font-family="-apple-system, Helvetica, Arial, sans-serif" font-weight="700" font-size="18" fill="#1a1a1a">
    <text x="44" y="107">1</text>
    <text x="44" y="207">2</text>
    <text x="44" y="307">3</text>
    <text x="44" y="407">4</text>
    <text x="44" y="507">5</text>
    <text x="44" y="607">6</text>
    <text x="44" y="707">7</text>
    <text x="44" y="807">8</text>
    <text x="44" y="907">9</text>
    <text x="44" y="1007">10</text>
    <text x="44" y="1107">11</text>
    <text x="44" y="1207">12</text>
    <text x="44" y="1307">13</text>
    <text x="44" y="1407">14</text>
    <text x="44" y="1507">15</text>
    <text x="44" y="1607">16</text>
    <text x="44" y="1707">17</text>
    <text x="44" y="1807">18</text>
    <text x="44" y="1907">19</text>
    <text x="44" y="2007">20</text>
    <text x="44" y="2107">21</text>
    <text x="44" y="2207">22</text>
    <text x="44" y="2307">23</text>
    <text x="44" y="2407">24</text>
    <text x="44" y="2507">25</text>
    <text x="44" y="2607">26</text>
    <text x="44" y="2707">27</text>
    <text x="44" y="2807">28</text>
    <text x="44" y="2907">29</text>
    <text x="44" y="3007">30</text>
  </g>

  <line x1="0" y1="0" x2="0" y2="3000" stroke="#888" stroke-width="0.5"/>
  <line x1="80" y1="0" x2="80" y2="3000" stroke="#888" stroke-width="0.5"/>
</svg>
